<svg width="48" height="48" viewBox="0 0 48 48" fill="none" xmlns="http://www.w3.org/2000/svg">
<g id="Sketch_black" clip-path="url(#clip0_1_1461)">
<path id="Vector" fill-rule="evenodd" clip-rule="evenodd" d="M24 48C10.7452 48 0 37.2548 0 24C0 10.7452 10.7452 0 24 0C37.2548 0 48 10.7452 48 24C48 37.2548 37.2548 48 24 48ZM29.4884 12.8H18.8993L13.8232 15.0884L9.6 19.7796L24.2043 39.2L38.8085 19.7796L34.5957 15.0468L29.4884 12.8Z" fill="black"/>
<path id="Vector_2" fill-rule="evenodd" clip-rule="evenodd" d="M26.3223 35.9609L33.0777 24.8441L35.9171 22.4501L26.3223 35.9609Z" fill="black"/>
<path id="Vector_3" fill-rule="evenodd" clip-rule="evenodd" d="M17.2542 25.4694H30.9431L24.2043 37.8893L17.2542 25.4694Z" fill="black"/>
<path id="Vector_4" fill-rule="evenodd" clip-rule="evenodd" d="M12.4814 22.4501L15.3209 24.8441L22.0763 35.9609L12.4814 22.4501Z" fill="black"/>
<path id="Vector_5" fill-rule="evenodd" clip-rule="evenodd" d="M14.0629 16.2533L18.4208 18.4377L15.3002 23.2643L10.8071 19.9055L14.0629 16.2533Z" fill="black"/>
<path id="Vector_6" fill-rule="evenodd" clip-rule="evenodd" d="M19.8451 13.5604H28.642L32.973 15.4704L28.6235 17.365H19.8266L15.521 15.472L19.8451 13.5604Z" fill="black"/>
<path id="Vector_7" fill-rule="evenodd" clip-rule="evenodd" d="M31.2777 23.8884H16.8606L19.7299 18.7914L28.3235 18.8122L31.2777 23.8884Z" fill="black"/>
<path id="Vector_8" fill-rule="evenodd" clip-rule="evenodd" d="M37.5915 19.9055L32.9731 23.3615L29.6887 18.4404L34.3357 16.2533L37.5915 19.9055Z" fill="black"/>
</g>
<defs>
<clipPath id="clip0_1_1461">
<rect width="48" height="48" fill="white"/>
</clipPath>
</defs>
</svg>
